<svg xmlns="http://www.w3.org/2000/svg" viewBox="0 0 512 512">
  <path d="M256 16c-17.7 0-32 14.3-32 32s14.3 32 32 32 32-14.3 32-32-14.3-32-32-32zm142.4 82c-15.1-1.1-28.7 8.9-32.3 23.4l-31.5 126.1H177.4L145.9 121.4c-3.6-14.5-17.2-24.5-32.3-23.4-16.7 1.2-29.2 15.8-28 32.5 1.1 15.1 14.2 26.6 29.3 26.6h.4l35.6 142.4H361l35.6-142.4h.4c15.1 0 28.2-11.5 29.3-26.6 1.2-16.7-11.3-31.3-28-32.5zM432 384H80c-17.7 0-32 14.3-32 32s14.3 32 32 32h352c17.7 0 32-14.3 32-32s-14.3-32-32-32zM368 320H144c-17.7 0-32 14.3-32 32s14.3 32 32 32h224c17.7 0 32-14.3 32-32s-14.3-32-32-32z" fill="#3880ff"/>
</svg>
